# xmcd
#
# Track frame offsets: 
#        150
#        18425
#        35777
#        49685
#        66949
#        85386
#        101253
#        118807
#        135393
#        149405
#        165084
#        182477
#
# Disc length: 2639 seconds
#
# Revision: 0
# Processed by: cddbd v1.5.2PL0 Copyright (c) Steve Scherf et al.
# Submitted via: ExactAudioCopy v0.99pb5
#
DISCID=9c0a4d0c
DTITLE=Darius Rucker  - Learn To Live 
DYEAR=2008
DGENRE=Country 
TTITLE0=Forever Road 
TTITLE1=All I Want 
TTITLE2=Don't Think I Don't Think About It 
TTITLE3=Learn To Live 
TTITLE4=If I Had Wings 
TTITLE5=History In The Making 
TTITLE6=Alright 
TTITLE7=It Won't Be Like This For Long 
TTITLE8=Drinkin' And Dialin' 
TTITLE9=I Hope They Get To Me In Time 
TTITLE10=While I Still Got The Time 
TTITLE11=Be Wary Of A Woman 
EXTD=
EXTT0=
EXTT1=
EXTT2=
EXTT3=
EXTT4=
EXTT5=
EXTT6=
EXTT7=
EXTT8=
EXTT9=
EXTT10=
EXTT11=
PLAYORDER=
